<svg xmlns="http://www.w3.org/2000/svg" xmlns:xlink="http://www.w3.org/1999/xlink" viewBox="0 0 431.09 254.35"><defs><style>.cls-1{fill:#303030;}.cls-2{fill:url(#radial-gradient);}.cls-3{fill:#f0f0f0;}</style><radialGradient id="radial-gradient" cx="217.43" cy="80.25" r="47.63" gradientTransform="translate(-25.23) scale(1.12 1)" gradientUnits="userSpaceOnUse"><stop offset="0" stop-color="#5078ff"/><stop offset="1" stop-color="#00fff0"/></radialGradient></defs><g id="Layer_2" data-name="Layer 2"><g id="Layer_1-2" data-name="Layer 1"><circle class="cls-1" cx="215.73" cy="78.57" r="78.57"/><path class="cls-2" d="M189.47,32l16,5.64a8.12,8.12,0,0,1,5.74,8l-4.75,75.45c-.28,4.46-6.81,5.92-9.41,2.11l-7.77-11.41L178.1,40C177.22,34.29,183.5,29.86,189.47,32ZM222,47.4l-3.16,32.28,33.23-36.45c3.55-3.89-.38-9.6-5.86-8.53l-14.52,2.84C226.42,38.58,222.5,42.57,222,47.4Zm28.83,53.14,2.58-32c.32-4-5.22-5.92-8-2.86L234,78.14l11.68,23.21C246.86,103.63,250.65,103,250.85,100.54Zm-32.63-7.18-2.05,25.19c-.34,4.17,3.63,7.59,8.28,7.12l11.38-1.15c5.4-.54,8.55-5.74,6.09-10.09L225.1,84.59Z"/><path class="cls-3" d="M34.53,216.54l23.8,36.63H38.72L22.34,227.28,16.7,234.6v18.57H0V187.51H16.7V216.4H17l22.11-28.89H57Zm71,11.51,13.15,25.12H99.91L88.63,230.55H80.12v22.62H63.42V187.51H91.86c15.88,0,24.84,7.87,24.84,21.8v.09C116.7,217.81,112.33,225.09,105.51,228.05Zm-5.82-18.79c0-5.5-3.92-9.14-9.79-9.14H80.12v18.33H90c5.92,0,9.7-3.55,9.7-9.1Zm65.24,19c0,7.64-4.1,12.24-11.56,12.24s-11.6-4.6-11.6-12.24V187.51h-16.7v42.36c0,14.79,11.15,24.48,28.26,24.48s28.3-9.74,28.3-24.48V187.51h-16.7Zm62.65,2.14h-.27l-16.47-42.91H191.55v65.66h14.69v-41h.36l16.07,41h9.55l16.06-41h.36v41h14.7V187.51H244.05Zm100,3.86v.1c0,11.41-8.88,18.79-22.93,18.79H273.26V187.51h30.53c13,0,20.88,6.28,20.88,16.52v.09c0,7.42-5.69,13.33-13.15,14.29v.31C320.48,219.18,327.54,225.69,327.54,234.28ZM290,214.49h8.19c6.68,0,10.23-2.91,10.23-7.82v-.09c0-4.55-3.36-7.28-9-7.28H290Zm20.61,18.61c0-5.23-3.87-8.1-11.2-8.1H290v16.38h9.92c6.82,0,10.69-2.86,10.69-8.19Zm40.72-45.59h-16.7v65.66h43.86V239.74H351.29Zm79.8,13.42V187.51h-45v65.66h45V239.74h-28.3V226.46h26.62V213.9H402.79v-13Z"/></g></g></svg>