<svg id="Layer_1" data-name="Layer 1" xmlns="http://www.w3.org/2000/svg" xmlns:xlink="http://www.w3.org/1999/xlink" viewBox="0 0 500 500"><defs><style>.cls-1{fill:#323232;}.cls-2{fill:url(#radial-gradient);}</style><radialGradient id="radial-gradient" cx="255.46" cy="255.34" r="151.55" gradientTransform="translate(-29.26) scale(1.12 1)" gradientUnits="userSpaceOnUse"><stop offset="0" stop-color="#5078ff"/><stop offset="1" stop-color="#00fff0"/></radialGradient></defs><circle class="cls-1" cx="250" cy="250" r="250"/><path class="cls-2" d="M166.44,101.7l50.83,17.93c11.6,4.09,19,14.39,18.26,25.54L220.4,385.23c-.89,14.18-21.68,18.84-29.93,6.72l-24.71-36.32L130.27,127.18C127.46,109.09,147.46,95,166.44,101.7ZM270,150.83,260,253.52l105.73-116C377,125.17,364.49,107,347.05,110.4l-46.2,9C284,122.75,271.52,135.46,270,150.83ZM361.75,319.9,370,218c1-12.56-16.63-18.84-25.52-9.09l-36.19,39.67,37.16,73.87C349.06,329.75,361.11,327.83,361.75,319.9ZM257.93,297.06l-6.54,80.13c-1.08,13.27,11.57,24.16,26.34,22.67l36.21-3.65c17.21-1.73,27.2-18.29,19.4-32.12l-53.53-94.93Z"/></svg>