<svg xmlns="http://www.w3.org/2000/svg" viewBox="0 0 310.85 46.7"><g id="Layer_2" data-name="Layer 2"><g id="Layer_1-2" data-name="Layer 1"><path d="M7.2,13.1V28a4.22,4.22,0,0,0,1.18,3.2,4.61,4.61,0,0,0,3.33,1.12,4.65,4.65,0,0,0,3.34-1.12,3.8,3.8,0,0,0,1.08-2.09A1.41,1.41,0,0,1,17.53,28h4.36a1.45,1.45,0,0,1,1.44,1.6,9.89,9.89,0,0,1-1.37,4,10,10,0,0,1-4.08,3.69,13.52,13.52,0,0,1-6.17,1.32,13.57,13.57,0,0,1-6.14-1.32,10,10,0,0,1-4.11-3.69A10.42,10.42,0,0,1,0,28V13.1A10.33,10.33,0,0,1,1.46,7.54,10,10,0,0,1,5.57,3.86a13.57,13.57,0,0,1,6.14-1.32,13.52,13.52,0,0,1,6.17,1.32A10,10,0,0,1,22,7.54a9.67,9.67,0,0,1,1.37,4,1.44,1.44,0,0,1-1.44,1.59H17.55A1.42,1.42,0,0,1,16.13,12a3.67,3.67,0,0,0-1.08-2.09,4.69,4.69,0,0,0-3.34-1.11A4.65,4.65,0,0,0,8.38,9.89,4.17,4.17,0,0,0,7.2,13.1ZM42.14,23.18c-.28.87-.58,1.92-.88,3.15s-.54,2.23-.7,3c-.16-.77-.39-1.77-.7-3s-.6-2.28-.88-3.15L35.33,12.63a1.44,1.44,0,0,0-1.36-1H29.28a1.45,1.45,0,0,0-1.34,2l8.92,22.63a1.49,1.49,0,0,1,0,1l-2.71,7.49a1.43,1.43,0,0,0,1.35,1.93H40a1.43,1.43,0,0,0,1.35-1L52.79,13.59a1.45,1.45,0,0,0-1.36-1.93H47a1.43,1.43,0,0,0-1.36,1ZM66,18.53a4.58,4.58,0,0,1,3.31-1.11,4.83,4.83,0,0,1,3.15,1A3.52,3.52,0,0,1,73.52,20a1.44,1.44,0,0,0,1.35,1h4.45a1.43,1.43,0,0,0,1.43-1.65,9.14,9.14,0,0,0-3.13-5.55,12.54,12.54,0,0,0-8.36-2.64,13.57,13.57,0,0,0-6.14,1.32A9.79,9.79,0,0,0,59,16.18a10.42,10.42,0,0,0-1.44,5.56V28A10.5,10.5,0,0,0,59,33.53a9.75,9.75,0,0,0,4.08,3.69,13.57,13.57,0,0,0,6.14,1.32,12.54,12.54,0,0,0,8.36-2.64,9.09,9.09,0,0,0,3.13-5.54,1.44,1.44,0,0,0-1.43-1.66H74.9a1.47,1.47,0,0,0-1.38,1.07,3.42,3.42,0,0,1-1.11,1.6,4.94,4.94,0,0,1-3.15.93A4.54,4.54,0,0,1,66,31.18,4.28,4.28,0,0,1,64.8,28V21.74A4.23,4.23,0,0,1,66,18.53ZM108,16.2a10.55,10.55,0,0,1,1.42,5.54V28A10.59,10.59,0,0,1,108,33.53a9.66,9.66,0,0,1-4,3.69,14.8,14.8,0,0,1-12.22,0,9.74,9.74,0,0,1-4-3.69A10.68,10.68,0,0,1,86.4,28V21.74a10.64,10.64,0,0,1,1.41-5.54,9.77,9.77,0,0,1,4-3.7,14.8,14.8,0,0,1,12.22,0A9.69,9.69,0,0,1,108,16.2Zm-5.78,5.54a4.37,4.37,0,0,0-1.1-3.21,5.18,5.18,0,0,0-6.41,0,4.26,4.26,0,0,0-1.13,3.21V28a4.55,4.55,0,0,0,7.54,3.2,4.42,4.42,0,0,0,1.1-3.2ZM116.64,46H136.8a1.44,1.44,0,0,0,1.44-1.44V40.7a1.45,1.45,0,0,0-1.44-1.44H116.64a1.44,1.44,0,0,0-1.44,1.44v3.84A1.43,1.43,0,0,0,116.64,46Zm29.28-7.92h4.32a1.44,1.44,0,0,0,1.44-1.44V25.68a1.43,1.43,0,0,1,1.44-1.44h11.23a1.43,1.43,0,0,0,1.44-1.44V19a1.43,1.43,0,0,0-1.44-1.44H153a1.44,1.44,0,0,1-1.44-1.44v-4.9A1.45,1.45,0,0,1,153,9.74H165.6A1.44,1.44,0,0,0,167,8.3V4.46A1.45,1.45,0,0,0,165.6,3H145.92a1.44,1.44,0,0,0-1.44,1.44V36.62A1.43,1.43,0,0,0,145.92,38.06ZM185.28,7.49a4.66,4.66,0,0,0,3.14-1,3.4,3.4,0,0,0,1.18-2.74A3.39,3.39,0,0,0,188.42,1a5.4,5.4,0,0,0-6.29,0A3.41,3.41,0,0,0,181,3.74a3.42,3.42,0,0,0,1.17,2.74A4.71,4.71,0,0,0,185.28,7.49Zm2.4,4.17H175.92a1.44,1.44,0,0,0-1.44,1.44v3.6a1.43,1.43,0,0,0,1.44,1.44h5a1.45,1.45,0,0,1,1.44,1.44V30.1A1.45,1.45,0,0,1,181,31.54h-6.24A1.43,1.43,0,0,0,173.28,33v3.64a1.43,1.43,0,0,0,1.44,1.44h20.64a1.44,1.44,0,0,0,1.44-1.44V33a1.44,1.44,0,0,0-1.44-1.44h-4.8a1.44,1.44,0,0,1-1.44-1.44v-17A1.45,1.45,0,0,0,187.68,11.66Zm35.54,4.54a10.55,10.55,0,0,1,1.42,5.54V25.1a1.44,1.44,0,0,1-1.44,1.44H209.9A1.45,1.45,0,0,0,208.46,28h0q0,5,4.8,5,2.79,0,3.75-1.44a1.5,1.5,0,0,1,1.24-.72h4.07a1.44,1.44,0,0,1,1.31,2.07,9.68,9.68,0,0,1-3.14,3.5,12.55,12.55,0,0,1-7.32,2.11,13.4,13.4,0,0,1-6.12-1.32,9.64,9.64,0,0,1-4-3.69A10.68,10.68,0,0,1,201.6,28V21.74A10.64,10.64,0,0,1,203,16.2a9.66,9.66,0,0,1,4-3.7,13.4,13.4,0,0,1,6.12-1.32,13.12,13.12,0,0,1,6.07,1.32A9.69,9.69,0,0,1,223.22,16.2Zm-5.45,5.45q0-5-4.6-5A4.45,4.45,0,0,0,209.64,18a5.55,5.55,0,0,0-1.18,3.79v.72l9.31-.09Zm33.72,3c-1.61-1.24-4.08-2.08-7.41-2.49l-3.31-.43a5.25,5.25,0,0,1-2.38-.82,2,2,0,0,1-.74-1.68,2.1,2.1,0,0,1,.81-1.8,4.44,4.44,0,0,1,2.59-.6h1.83a4.52,4.52,0,0,1,2.47.6,2.06,2.06,0,0,1,.73.74,1.49,1.49,0,0,0,1.3.82h4.5a1.46,1.46,0,0,0,1.4-1.8,6.71,6.71,0,0,0-2.67-3.86,12.79,12.79,0,0,0-7.73-2.12h-1.83q-5.09,0-7.72,2.12a7.17,7.17,0,0,0-2.64,5.95,6.48,6.48,0,0,0,2.25,5.42q2.26,1.78,7.2,2.4l3.07.39q3.75.48,3.75,2.73c0,1.83-1.35,2.74-4,2.74h-2.12a4.64,4.64,0,0,1-2.66-.7,2.24,2.24,0,0,1-.86-1,1.43,1.43,0,0,0-1.31-.86h-4.46a1.44,1.44,0,0,0-1.41,1.76,6.78,6.78,0,0,0,1.18,2.52,9,9,0,0,0,3.81,2.85,14.59,14.59,0,0,0,5.71,1h2.12c3.61,0,6.35-.72,8.2-2.16a7.36,7.36,0,0,0,2.79-6.19A6.6,6.6,0,0,0,251.49,24.62Zm19.23-20.4H266.4A1.44,1.44,0,0,0,265,5.66v4.56a1.44,1.44,0,0,1-1.44,1.44h-4.08A1.44,1.44,0,0,0,258,13.1v3.6a1.43,1.43,0,0,0,1.44,1.44h4.08A1.45,1.45,0,0,1,265,19.58v9.84a8.6,8.6,0,0,0,2.3,6.34,8.56,8.56,0,0,0,6.34,2.3h6.48a1.44,1.44,0,0,0,1.44-1.44V33a1.45,1.45,0,0,0-1.44-1.44h-4.32a3.6,3.6,0,0,1-3.6-3.6v-8.4a1.44,1.44,0,0,1,1.44-1.44h7A1.44,1.44,0,0,0,282,16.7V13.1a1.45,1.45,0,0,0-1.44-1.44h-7a1.43,1.43,0,0,1-1.44-1.44V5.66A1.45,1.45,0,0,0,270.72,4.22ZM310.85,20.3V36.62a1.44,1.44,0,0,1-1.44,1.44h-4.08a1.43,1.43,0,0,1-1.44-1.44V33.74h-.15a5.71,5.71,0,0,1-2.59,3.53,9.24,9.24,0,0,1-5,1.27,8.9,8.9,0,0,1-6.31-2.16,7.6,7.6,0,0,1-2.33-5.85,7.27,7.27,0,0,1,2.76-6.12q2.76-2.14,7.94-2.14h4a1.44,1.44,0,0,0,1.44-1.44V20.3a3,3,0,0,0-1.08-2.44,4.36,4.36,0,0,0-2.91-.92,4.75,4.75,0,0,0-2.78.77A3.11,3.11,0,0,0,295.79,19a1.34,1.34,0,0,1-1.21.83h-4.25A1.46,1.46,0,0,1,289,17.93a8.7,8.7,0,0,1,3.1-4.42,12.6,12.6,0,0,1,7.85-2.33,12,12,0,0,1,8,2.48A8.2,8.2,0,0,1,310.85,20.3Zm-7.2,7.49a1.45,1.45,0,0,0-1.44-1.44h-3.89a3.69,3.69,0,0,0-2.64.94,3.54,3.54,0,0,0,.09,5,4.57,4.57,0,0,0,3,.93,5.29,5.29,0,0,0,3.48-1.12,3.67,3.67,0,0,0,1.37-3Z"/></g></g></svg>